<svg width="28" height="29" viewBox="0 0 28 29" fill="none" xmlns="http://www.w3.org/2000/svg">
<g clip-path="url(#clip0_1086_1335)">
<path d="M14 18.8896C16.4162 18.8896 18.375 16.9309 18.375 14.5146C18.375 12.0984 16.4162 10.1396 14 10.1396C11.5838 10.1396 9.625 12.0984 9.625 14.5146C9.625 16.9309 11.5838 18.8896 14 18.8896Z" stroke="white" stroke-width="2" stroke-miterlimit="10"/>
<path d="M19.25 4.01465H8.75C5.85051 4.01465 3.5 6.36515 3.5 9.26465V19.7646C3.5 22.6641 5.85051 25.0146 8.75 25.0146H19.25C22.1495 25.0146 24.5 22.6641 24.5 19.7646V9.26465C24.5 6.36515 22.1495 4.01465 19.25 4.01465Z" stroke="white" stroke-width="2" stroke-linecap="round" stroke-linejoin="round"/>
<path d="M19.6875 10.1396C20.4124 10.1396 21 9.55202 21 8.82715C21 8.10227 20.4124 7.51465 19.6875 7.51465C18.9626 7.51465 18.375 8.10227 18.375 8.82715C18.375 9.55202 18.9626 10.1396 19.6875 10.1396Z" fill="white"/>
</g>
<defs>
<clipPath id="clip0_1086_1335">
<rect width="28" height="28" fill="white" transform="translate(0 0.514648)"/>
</clipPath>
</defs>
</svg>
