<svg width="22" height="23" viewBox="0 0 22 23" fill="none" xmlns="http://www.w3.org/2000/svg">
<path d="M20 0.514648H2C0.895 0.514648 0 1.40965 0 2.51465V20.5146C0 21.6196 0.895 22.5146 2 22.5146H20C21.105 22.5146 22 21.6196 22 20.5146V2.51465C22 1.40965 21.105 0.514648 20 0.514648ZM6.954 18.5146H4.004V9.02265H6.954V18.5146ZM5.449 7.66565C4.498 7.66565 3.729 6.89465 3.729 5.94565C3.729 4.99665 4.499 4.22665 5.449 4.22665C6.397 4.22665 7.168 4.99765 7.168 5.94565C7.168 6.89465 6.397 7.66565 5.449 7.66565ZM18.004 18.5146H15.056V13.8986C15.056 12.7976 15.036 11.3816 13.523 11.3816C11.988 11.3816 11.752 12.5806 11.752 13.8186V18.5146H8.804V9.02265H11.634V10.3196H11.674C12.068 9.57365 13.03 8.78665 14.465 8.78665C17.452 8.78665 18.004 10.7526 18.004 13.3086V18.5146Z" fill="white"/>
</svg>
